<svg 
xmlns="http://www.w3.org/2000/svg" 
version="1.1" 
xmlns:xlink="http://www.w3.org/1999/xlink" 
xmlns:svgjs="http://svgjs.dev/svgjs" 
width="100" 
height="100" viewBox="0 0 1000 1000"><rect width="1000" height="1000" fill="#ffffff"></rect><g transform="matrix(0.7,0,0,0.7,150.0000000000001,106.25)"><svg viewBox="0 0 320 360" data-background-color="#ffffff" preserveAspectRatio="xMidYMid meet" height="1125" width="1000" xmlns="http://www.w3.org/2000/svg" xmlns:xlink="http://www.w3.org/1999/xlink"><g id="tight-bounds" transform="matrix(1,0,0,1,0,0)"><svg viewBox="0 0 320 360" height="360" width="320"><g><svg></svg></g><g><svg viewBox="0 0 320 360" height="360" width="320"><g><path xmlns="http://www.w3.org/2000/svg" d="M20.961 227.22l3.726 4.658-1.863-6.056c-0.466-2.795-3.726 0.466-1.863 1.398M25.153 224.425c1.397 2.329 2.795 4.658 2.795 6.987 0 3.261 2.795 4.658 5.123 5.589-3.261-3.726-5.124-13.974-7.918-12.576M204.017 26.929c7.918 0 15.371-0.932 23.756 0.931 20.495 5.124 37.729 15.371 49.374 29.811l32.606 52.169c1.397 13.042 4.192 27.482 3.726 43.319 3.261 0 2.795-4.658 6.521-5.59-3.726 9.316-5.59 20.961-6.521 34.469-2.329-7.453 0-18.632 0.466-24.687-3.261 5.124-5.124 1.397-5.124-0.932 0.466-3.726-1.397-3.261-2.795-4.658-5.124-4.658-8.384-9.782-12.11-17.7 2.329-6.055 2.795-14.905-4.658-19.563-2.329-1.397-5.124-3.726-6.521-7.453-1.863-5.124-5.124-11.179-4.193-19.097 0.466-2.329-6.987 5.124-11.179 1.863-18.166-12.576-36.332-27.016-58.224-39.127-11.645 0-20.029-4.192-24.221-9.316-3.726-4.658-0.932-10.713 4.658-11.179 3.261 0 6.987-0.932 9.782 0.932 0.466-1.863 2.329-4.192 4.657-4.192M157.904 16.215l0.932 0.466c4.658 0.932 6.987 7.453 12.11 5.124 0 3.261 0.466 6.521-0.466 8.85-1.397 3.726-5.59 3.726-8.85 3.726-31.208-1.863-49.374 11.179-68.471 22.358-5.124 3.261-10.713 5.59-14.906 9.782-20.029 18.632-41.921 35.866-47.045 70.335l-4.192 38.195c-0.466 4.192-5.124 8.384-4.192 13.508l3.26 22.824c-3.261-3.261-5.124 0.932-4.192 2.795 0.466 1.397 2.329 6.055 5.124 1.863 3.726 6.987 7.453 20.495 12.576 26.55 15.837 18.632 36.332 35.4 53.101 52.169 4.192-0.932 7.453-0.932 8.384-3.727 1.397 2.795-1.397 5.59-3.726 6.056 7.453 4.658 15.837 8.85 27.016 9.781 14.44 0.932 27.948 3.261 40.524 6.522 6.521-1.863 13.042-2.795 20.029-3.261 2.329 0 3.726-3.726 6.521-4.658l0.466-4.658c2.795 4.192 2.329-1.397 0.466-4.192 3.261 2.795 4.192 5.124 5.589 6.987 0-1.397 3.726-6.521 3.727-0.466l0.931-6.055c1.397-0.932 1.863 5.124 3.261 0.931 1.397-4.192 4.192-0.932 6.987-2.329-0.932 1.863-0.466 5.59 2.794 3.261l3.727-3.261c2.329 5.59 6.055 3.261 7.918 2.329 20.495-13.042 40.99-28.413 60.553-43.784l-0.466 6.055 2.329-7.453c2.329 2.329 4.192 0.466 5.124-0.931 2.795-4.658 6.521-9.316 12.577-13.508-7.453 20.029-16.303 35.866-27.482 48.908l-4.658 5.59c0 3.261-0.932 7.453-4.658 7.918-1.863 0.466-5.59-0.932-8.384 1.863-1.397 1.863 3.261 5.59-0.466 2.795-3.261-2.329-6.521 0-10.248 0.932-2.795 0.932 1.863 3.726 2.795 5.589 0.932 1.863 1.863 3.726 1.398 6.056l-5.124-5.59c-6.055 3.261-9.782 9.316-14.906 13.974-2.329 1.863-1.397 5.124-1.397 7.918-3.261 0-6.987-0.932-8.85 0.932-1.397 1.863-0.932 4.658-0.932 7.453-4.658-0.466-5.124-7.453-9.315-6.056-4.192 0.932-8.85 1.397-12.577 3.727 2.795 5.59-4.658 2.329-3.726 3.26-6.987-4.192-13.042-7.453-20.495-4.658-15.837-5.124-35.4-2.795-49.84-0.931 0-2.329 0.466-4.658-0.466-5.124-0.932 2.329-3.726 1.397-3.26 1.397-8.85-6.055-17.7-9.782-27.016-14.905-8.384 0.932-16.303-3.261-18.632-5.59-6.521-6.055-13.974-2.795-20.029-4.192-13.042-3.261-17.7-16.769-19.098-26.084-0.932-4.658-4.658-6.521-6.055-6.056-6.055-19.563-15.371-37.263-22.824-55.429-1.863-4.658-1.397-9.316-1.397-14.44 2.329 0.932 4.658 0.466 4.192-2.794-2.329-15.371-7.918-27.016-13.974-38.195 3.261-15.837 3.726-34.469 11.179-48.443 6.521-12.576 18.632-19.098 27.016-29.811 2.795-3.726 2.795-8.85 5.59-12.11 9.316-9.316 18.632-19.098 28.879-27.482 4.658-3.726 10.247 0 17.234-1.397 2.329-8.384 11.645-15.837 20.495-13.508 3.726 0.932 11.179-8.85 13.508-9.782 3.726-1.397 1.863 3.726 1.863 6.987 8.85-6.987 20.961-10.713 32.14-14.906" fill="#ee3e38" fill-rule="nonzero" stroke="none" stroke-width="1" stroke-linecap="butt" stroke-linejoin="miter" stroke-miterlimit="10" stroke-dasharray="" stroke-dashoffset="0" font-family="none" font-weight="none" font-size="none" text-anchor="none" style="mix-blend-mode: normal" data-fill-palette-color="tertiary"></path></g><g transform="matrix(1,0,0,1,64.00000000000001,140.46335184628816)"><svg viewBox="0 0 191.99999999999997 79.07329630742366" height="79.07329630742366" width="191.99999999999997"><g><svg viewBox="0 0 191.99999999999997 79.07329630742366" height="79.07329630742366" width="191.99999999999997"><g><svg viewBox="0 0 192.00000000000003 79.07329630742367" height="79.07329630742366" width="191.99999999999997"><g><svg viewBox="0 0 192.00000000000003 79.07329630742367" height="79.07329630742367" width="192.00000000000003"><g id="textblocktransform"><svg viewBox="0 0 192.00000000000003 79.07329630742367" height="79.07329630742367" width="192.00000000000003" id="textblock"><g><svg viewBox="0 0 192.00000000000003 51.5671447196871" height="51.5671447196871" width="192.00000000000003"><g transform="matrix(1,0,0,1,0,0)"><svg width="192.00000000000003" viewBox="0.75 -31.700000762939453 153.3800048828125 41.20000076293945" height="51.5671447196871" data-palette-color="#ee3e38"><path d="M9.35-1.25L9.35-1.25Q4.95 2.15 2.9 2.15L2.9 2.15Q1.8 2.15 1.28 1.07 0.75 0 0.75-1.25L0.75-1.25Q0.75-3.65 2.78-8.45 4.8-13.25 6.65-13.25L6.65-13.25Q7.6-13.25 8.28-9.5 8.95-5.75 9.65-4.05L9.65-4.05Q13.05-7.65 19.5-16.05L19.5-16.05Q27.6-26.7 30.25-27.7L30.25-27.7Q31.15-28.05 32.1-28.05 33.05-28.05 33.68-27.65 34.3-27.25 34.3-26.65L34.3-26.65Q34.3-25.8 32.85-25.65L32.85-25.65Q31.1-24.7 27.45-21.05L27.45-21.05Q23.8-17.5 21.6-14.4L21.6-14.4Q16.25-6.95 10.6-2.25L10.6-2.25Q13.4 1.9 19.4 1.9L19.4 1.9Q20.05 1.9 21.35 1.8L21.35 1.8Q35.25 0.5 41.05-10.25L41.05-10.25Q43.4-14.55 43.4-18.75 43.4-22.95 40.35-26.3L40.35-26.3Q37.9-29.05 35.02-29.7 32.15-30.35 29.15-30.35L29.15-30.35Q21.45-30.35 14.95-26.8L14.95-26.8Q8.1-23.05 8.1-18.4L8.1-18.4Q8.1-17.15 8.78-16.35 9.45-15.55 9.7-15.45L9.7-15.45 9.4-15.45Q8.1-15.7 7.1-16.75L7.1-16.75Q6-18.05 6-19.5L6-19.5Q6-24.5 12.28-28.1 18.55-31.7 27-31.7L27-31.7Q30.9-31.7 35-30.8 39.1-29.9 42.45-26.5L42.45-26.5Q46.3-22.5 46.3-17.45L46.3-17.45Q46.3-13.7 44.1-9.7L44.1-9.7Q40.3-2.8 32.75 0.4L32.75 0.4Q26.7 2.95 19.7 2.95 12.7 2.95 9.35-1.25ZM2.55-1.45L2.55-1.45Q2.55 0.1 3.15 1.25L3.15 1.25Q5.3 0.3 8.35-2.7L8.35-2.7Q6.9-5.1 6.53-6.48 6.15-7.85 6-10.1L6-10.1Q2.55-5.15 2.55-1.45ZM9.7-15.45L9.7-15.45Q9.75-15.45 9.8-15.5L9.8-15.5Q9.8-15.4 9.78-15.4 9.75-15.4 9.7-15.45ZM56.9-20.4Q57.65-20.4 58.32-19.93 59-19.45 59-18.8 59-18.15 58.37-17.68 57.75-17.2 57-17.2 56.25-17.2 55.62-17.75 55-18.3 55-19L55-19Q55-20.4 56.9-20.4L56.9-20.4ZM47.85 0.55L47.85 0.55Q45.3 0.55 45.3-2.75L45.3-2.75Q45.3-5.45 48.25-10.23 51.2-15 53-15.05L53-15.05Q53.5-15.05 54.12-14.65 54.75-14.25 54.75-13.85L54.75-13.85Q54.5-13.5 54.15-13.08 53.8-12.65 53.4-12.15 53-11.65 52.3-10.73 51.6-9.8 50.95-8.95L50.95-8.95Q47.2-4.1 47.2-2.27 47.2-0.45 48.45-0.45L48.45-0.45Q49.5-0.45 51.3-1.6L51.3-1.6Q55.5-4.2 57.95-7.3L57.95-7.3Q58.85-8.45 59.17-8.45 59.5-8.45 59.5-8.05 59.5-7.65 58.35-6.45 57.2-5.25 56.52-4.55 55.85-3.85 55.6-3.63 55.35-3.4 54.67-2.78 54-2.15 53.65-1.9 53.3-1.65 52.65-1.15 52-0.65 51.5-0.43 51-0.2 50.35 0.1L50.35 0.1Q49.3 0.55 47.85 0.55ZM59.3-2.5Q59.3-1 60.95-1 62.6-1 65.2-2.75 67.8-4.5 70.25-7.5L70.25-7.5Q70.85-8.3 71.2-8.3 71.55-8.3 71.55-8L71.55-8Q71.55-7.7 69.5-5.4L69.5-5.4Q64.5 0.1 61.15 0.1L61.15 0.1Q59.5 0.1 58.35-0.68 57.2-1.45 57.2-3.08 57.2-4.7 58.05-6.85L58.05-6.85Q59.5-10.25 62.7-15.4L62.7-15.4Q68.55-24.9 71-24.9L71-24.9Q71.5-24.9 72.02-24.53 72.55-24.15 72.6-23.7L72.6-23.7Q71.45-22.15 68.17-17.75 64.9-13.35 63.65-11.43 62.4-9.5 61.77-8.55 61.15-7.6 60.85-7.08 60.55-6.55 60.15-5.7L60.15-5.7Q59.3-4 59.3-2.5ZM88.34-11.3L88.34-11.3Q88.34-7.25 83.72-3.63 79.09 0 75.69 0L75.69 0Q73.44 0 72.42-0.3 71.39-0.6 70.14-2.1L70.14-2.1Q69.29-1.4 67.84 1.48 66.39 4.35 66.39 6.4L66.39 6.4Q66.39 7.35 67.34 8.9L67.34 8.9Q67.44 9.15 67.19 9.33 66.94 9.5 66.82 9.5 66.69 9.5 66.59 9.45L66.59 9.45Q64.49 8.3 64.49 4.98 64.49 1.65 70.02-6.53 75.54-14.7 77.64-15.4L77.64-15.4Q78.14-15.5 78.29-15.5L78.29-15.5Q79.14-15.5 79.14-13.65L79.14-13.65Q79.64-14.15 81.19-14.6L81.19-14.6Q83.09-15.1 83.89-15.1L83.89-15.1Q85.69-15.1 87.02-14.08 88.34-13.05 88.34-11.3ZM85.79-11.8L85.79-11.8Q85.79-13.7 83.54-13.7 81.29-13.7 79.44-12.75L79.44-12.75Q78.59-12.35 74.74-8.35 70.89-4.35 70.89-3.2L70.89-3.2Q70.89-2.3 72.27-1.85 73.64-1.4 75.04-1.4L75.04-1.4Q77.79-1.4 81.79-4.53 85.79-7.65 85.79-11.8ZM98.54 0.25L98.54 0.25Q94.79 0.25 94.79-3.9L94.79-3.9Q94.79-6 95.89-8.5 96.99-11 98.29-12.7L98.29-12.7Q98.04-12.65 97.64-12.65L97.64-12.65Q96.44-12.65 95.64-14.35L95.64-14.35 91.94-9.55Q88.84-5.7 88.34-5.7L88.34-5.7Q88.09-5.7 88.09-5.9L88.09-5.9Q88.09-6.4 88.94-7.35L88.94-7.35Q93.29-12.4 95.09-15.9L95.09-15.9Q96.24-20.25 97.99-20.25L97.99-20.25Q99.14-20.25 99.14-19.25 99.14-18.25 97.89-16.7L97.89-16.7 96.69-15.1Q96.69-14.05 98.24-14.05L98.24-14.05Q99.14-14.05 100.24-14.7L100.24-14.7 101.54-15.5Q101.64-15.55 102.04-15.55 102.44-15.55 102.89-15.05 103.34-14.55 103.19-14.15L103.19-14.15 99.74-9.8Q96.54-5.7 96.54-3.33 96.54-0.95 98.74-0.95L98.74-0.95Q101.04-0.95 104.39-3.4L104.39-3.4Q106.39-4.85 108.04-6.65L108.04-6.65Q109.59-8.45 109.74-8.45L109.74-8.45Q110.09-8.45 110.09-8.08 110.09-7.7 109.64-7.2L109.64-7.2 108.04-5.4Q106.69-4 105.04-2.7L105.04-2.7Q101.09 0.25 98.54 0.25ZM110.59 0.65L110.59 0.65Q110.04 0.65 109.59 0.5L109.59 0.5Q106.39-0.4 106.39-3.1L106.39-3.1Q106.39-6.6 110.79-11.2 115.19-15.8 118.69-15.8L118.69-15.8Q119.84-15.8 120.56-15.18 121.29-14.55 121.29-13.65L121.29-13.65Q121.29-10.85 117.06-8.3 112.84-5.75 110.19-5.75L110.19-5.75Q109.79-5.75 109.49-5.85L109.49-5.85Q108.74-4.5 108.74-3L108.74-3Q108.74-0.4 111.21-0.4 113.69-0.4 117.64-3.75L117.64-3.75Q120.69-6.2 122.84-8.95L122.84-8.95Q123.29-9.55 123.61-9.55 123.94-9.55 123.94-9.25 123.94-8.95 123.54-8.4L123.54-8.4Q120.84-4.85 117.04-2.1 113.24 0.65 110.59 0.65ZM120.04-13.75L120.04-13.75Q120.04-14.35 118.76-14.35 117.49-14.35 115.14-12.4L115.14-12.4Q111.99-9.8 110.24-6.95L110.24-6.95Q110.54-6.85 110.89-6.85L110.89-6.85Q112.79-6.85 115.96-8.88 119.14-10.9 119.94-13.3L119.94-13.3Q120.04-13.55 120.04-13.75ZM123.44 0.65L123.44 0.65Q122.89 0.65 122.44 0.5L122.44 0.5Q119.24-0.4 119.24-3.1L119.24-3.1Q119.24-6.6 123.64-11.2 128.04-15.8 131.54-15.8L131.54-15.8Q132.69-15.8 133.41-15.18 134.14-14.55 134.14-13.65L134.14-13.65Q134.14-10.85 129.91-8.3 125.69-5.75 123.04-5.75L123.04-5.75Q122.64-5.75 122.34-5.85L122.34-5.85Q121.59-4.5 121.59-3L121.59-3Q121.59-0.4 124.06-0.4 126.54-0.4 130.49-3.75L130.49-3.75Q133.54-6.2 135.69-8.95L135.69-8.95Q136.14-9.55 136.46-9.55 136.79-9.55 136.79-9.25 136.79-8.95 136.39-8.4L136.39-8.4Q133.69-4.85 129.89-2.1 126.09 0.65 123.44 0.65ZM132.89-13.75L132.89-13.75Q132.89-14.35 131.61-14.35 130.34-14.35 127.99-12.4L127.99-12.4Q124.84-9.8 123.09-6.95L123.09-6.95Q123.39-6.85 123.74-6.85L123.74-6.85Q125.64-6.85 128.81-8.88 131.99-10.9 132.79-13.3L132.79-13.3Q132.89-13.55 132.89-13.75ZM146.78-16.1L146.78-16.1 153.98-16.2Q154.13-16.1 154.13-16.05L154.13-16.05Q154.13-15.6 147.91-14.8 141.68-14 141.18-13.85L141.18-13.85Q140.23-13 137.68-8.78 135.13-4.55 135.13-2.6L135.13-2.6Q135.13-0.75 137.68-0.75L137.68-0.75Q138.88-0.75 140.83-1.5 142.78-2.25 143.83-2.9L143.83-2.9Q146.63-4.65 149.83-8.05L149.83-8.05Q150.53-8.75 150.78-8.75L150.78-8.75Q150.93-8.75 150.93-8.45 150.93-8.15 150.18-7.25L150.18-7.25Q147.58-4.05 144.33-2.1L144.33-2.1Q140.43 0.3 136.88 0.3L136.88 0.3Q135.33 0.3 134.36-0.38 133.38-1.05 133.38-3.1 133.38-5.15 135.18-8.72 136.98-12.3 137.93-14.05L137.93-14.05Q137.23-13.9 136.73-13.9L136.73-13.9Q135.28-13.9 135.28-15.05L135.28-15.05Q135.28-15.9 136.48-16.25L136.48-16.25Q136.63-16.25 136.93-16.3L136.93-16.3 139.83-16.3Q140.73-17.45 141.88-18.95L141.88-18.95Q143.28-20.75 143.78-20.75 144.28-20.75 145.03-20.35 145.78-19.95 145.78-19.4 145.78-18.85 143.38-16.15L143.38-16.15Q144.68-16.1 146.78-16.1Z" opacity="1" transform="matrix(1,0,0,1,0,0)" fill="#ee3e38" class="wordmark-text-0" data-fill-palette-color="primary" id="text-0"></path></svg></g></svg></g><g transform="matrix(1,0,0,1,0,59.09202874576272)"><svg viewBox="0 0 192.00000000000003 19.981267561660946" height="19.981267561660946" width="192.00000000000003"><g transform="matrix(1,0,0,1,0,0)"><svg width="192.00000000000003" viewBox="1.9000000953674316 -37.5 480.3999938964844 50" height="19.981267561660946" data-palette-color="#ee3e38"><path d="M4.55-33.95L1.9-34.25 1.95-35 8.55-35 20.5-9.65 32.25-35 38.85-35Q38.85-34.9 38.9-34.65 38.95-34.4 38.9-34.25L38.9-34.25 36.25-33.95Q35.75-33.9 35.65-33.3L35.65-33.3 35.65-0.95 39.35-0.75Q39.35-0.7 39.3 0L39.3 0 29.25 0.05 29.3-0.65 31.9-1Q32.4-1.05 32.5-1.6L32.5-1.6 32.5-33.2 21.1-8.55 20.1-6.55 18.95-6.55 6.3-33.25 6.3-1.05 12-0.75Q12-0.7 11.95 0L11.95 0 1.9 0.05 1.95-0.65 4.55-1Q5.05-1.05 5.15-1.65L5.15-1.65 5.15-33.3Q5.05-33.9 4.55-33.95L4.55-33.95ZM44.6-11.5L44.6-11.5Q44.6-0.7 53-0.7L53-0.7Q55.2-0.7 57.7-1.18 60.2-1.65 60.9-2.05L60.9-2.05 61.25-1.55Q60.1-0.8 57.47-0.3 54.85 0.2 52.67 0.2 50.5 0.2 48.77-0.25 47.05-0.7 45.25-1.85 43.45-3 42.4-5.45 41.35-7.9 41.35-11.45L41.35-11.45Q41.35-18.05 44.75-21.55L44.75-21.55Q48.3-25.2 53-25.2 57.7-25.2 60.17-22.6 62.65-20 62.65-15.3L62.65-15.3Q62.65-14.3 62.5-13.15L62.5-13.15 44.65-13.15Q44.6-12.6 44.6-11.5ZM59.7-15.65L59.7-15.65Q59.7-19.4 58.05-21.78 56.4-24.15 53.55-24.15L53.55-24.15Q49.85-24.15 47.3-20.9L47.3-20.9Q45.25-18.35 44.75-14.1L44.75-14.1 59.65-14.1Q59.7-14.65 59.7-15.65ZM72.45-22.95L72.45-22.95 72.45-18.95Q76.4-24.75 80.2-24.85L80.2-24.85Q80.5-24.85 80.8-24.85L80.8-24.85 83.6-24.5 82.3-21.5Q81.35-22.45 79.85-22.45L79.85-22.45Q76.2-22.4 72.45-17.6L72.45-17.6 72.45-1 76.7-0.75Q76.7-0.7 76.65 0L76.65 0 66.15 0.05Q66.15-0.4 66.2-0.65L66.2-0.65 68.8-1Q69.2-1.05 69.2-1.7L69.2-1.7 69.2-23.4Q69.1-23.75 68.9-23.75L68.9-23.75 65.9-23.85 65.95-24.55Q68.65-25 70.05-25 71.45-25 71.95-24.35 72.45-23.7 72.45-22.95ZM95.89 0L85.84 0.05 85.89-0.65 88.49-1Q88.94-1.05 88.94-1.7L88.94-1.7 88.94-23.35Q88.84-23.75 88.64-23.75L88.64-23.75 85.59-23.85 85.64-24.55Q88.79-25 89.89-25L89.89-25Q91.89-25 92.14-23.25L92.14-23.25 92.19-23.25 92.19-22.2Q96.29-25 100.04-25.15L100.04-25.15Q103.69-25.15 105.59-23.7L105.59-23.7Q106.44-23.05 107.12-21.68 107.79-20.3 107.79-18.4L107.79-18.4 107.79-1 111.54-0.75Q111.54-0.7 111.49 0L111.49 0 101.49 0.05Q101.49-0.4 101.54-0.65L101.54-0.65 104.14-1Q104.54-1.05 104.54-1.7L104.54-1.7 104.54-17.15Q104.54-19.15 104.02-20.55 103.49-21.95 102.84-22.6 102.19-23.25 101.24-23.6L101.24-23.6Q100.14-24 98.94-24L98.94-24Q95.94-23.95 92.19-21.65L92.19-21.65 92.19-1 95.94-0.75Q95.94-0.7 95.89 0L95.89 0ZM141.44-0.95L141.44-0.95Q145.14-0.95 147.94-3.13 150.74-5.3 150.74-9.75L150.74-9.75Q150.74-11.75 149.76-13.18 148.79-14.6 147.19-15.38 145.59-16.15 143.69-16.73 141.79-17.3 139.89-17.95 137.99-18.6 136.39-19.5 134.79-20.4 133.81-22.05 132.84-23.7 132.84-26L132.84-26Q132.84-30 135.59-32.55 138.34-35.1 142.94-35.1 147.54-35.1 151.74-34.05L151.74-34.05 152.29-27.8 151.34-27.4 150.84-31.35Q147.14-34.1 143.89-34.1 140.64-34.1 138.44-32.13 136.24-30.15 136.24-26.2L136.24-26.2Q136.24-23.9 138.09-22.55 139.94-21.2 142.56-20.45 145.19-19.7 147.81-18.75 150.44-17.8 152.29-15.55 154.14-13.3 154.14-9.7L154.14-9.7Q154.14-4.85 150.69-2.4 147.24 0.05 141.59 0.05 135.94 0.05 131.79-3L131.79-3 131.84-8.3 132.79-8.55 132.89-5.7Q134.24-3.8 136.59-2.38 138.94-0.95 141.44-0.95ZM168.29-0.95L168.29-0.95 170.24-1.05 170.39-0.55Q170.34-0.55 169.69-0.4L169.69-0.4Q168.19-0.05 166.34-0.05L166.34-0.05Q164.64-0.15 163.24-0.63 161.84-1.1 160.64-2.63 159.44-4.15 159.44-6.55L159.44-6.55 159.44-24.1 156.89-24.1 157.29-24.5 159.49-24.95 159.89-29.75 162.69-30 162.69-25 168.74-25 168.74-24.1 162.69-24.1 162.69-7.4Q162.69-3.6 164.29-2.27 165.89-0.95 168.29-0.95ZM189.18-1.9L189.18-1.9 189.03-1.9Q184.53 0.2 180.28 0.2L180.28 0.2Q173.63 0.2 173.23-5.05L173.23-5.05Q173.18-5.4 173.18-5.7L173.18-5.7Q173.18-9.55 178.23-10.85L178.23-10.85Q181.23-11.5 189.03-12.4L189.03-12.4 189.03-16.8Q189.03-18.9 188.53-20.4 188.03-21.9 187.43-22.63 186.83-23.35 185.88-23.75L185.88-23.75Q184.68-24.25 183.21-24.25 181.73-24.25 179.83-23.5L179.83-23.5Q177.08-22.35 174.93-20.6L174.93-20.6 174.73-16.7 173.78-16.45 173.78-22.5 174.28-22.7Q178.18-24.4 180.23-24.75 182.28-25.1 183.23-25.13 184.18-25.15 185.06-25.1 185.93-25.05 187.33-24.65 188.73-24.25 189.76-23.53 190.78-22.8 191.53-21.35 192.28-19.9 192.28-17.9L192.28-17.9 192.28-2.6Q192.28-1.05 193.08-1.05L193.08-1.05 196.13-0.9 196.08-0.15Q193.28 0.25 191.08 0.25L191.08 0.25Q190.48 0.2 189.83-0.38 189.18-0.95 189.18-1.9ZM181.18-0.6L181.18-0.6Q184.88-0.6 189.03-3.2L189.03-3.2 189.03-11.45Q181.53-11.2 179.61-10.58 177.68-9.95 176.96-8.63 176.23-7.3 176.23-6L176.23-6Q176.23-5.75 176.23-5.5L176.23-5.5Q176.38-2.9 177.78-1.75 179.18-0.6 181.18-0.6ZM210.13-24.3L210.13-24.3Q205.88-24.3 203.26-20.98 200.63-17.65 200.63-11.55L200.63-11.55Q200.63-0.7 208.88-0.7L208.88-0.7Q212.13-0.7 214.43-1.33 216.73-1.95 216.93-2.1L216.93-2.1 217.28-1.55Q216.13-0.8 213.48-0.3 210.83 0.2 208.68 0.2 206.53 0.2 204.78-0.25 203.03-0.7 201.26-1.85 199.48-3 198.43-5.48 197.38-7.95 197.38-11.5L197.38-11.5Q197.38-18.05 200.73-21.4L200.73-21.4Q204.48-25.25 210.18-25.25L210.18-25.25Q211.98-25.25 214.01-24.78 216.03-24.3 217.13-23.3L217.13-23.3 217.13-16.75 216.18-16.4 215.93-21.65Q214.83-22.8 213.26-23.55 211.68-24.3 210.13-24.3ZM231.33 0L221.28 0.05 221.33-0.65 223.93-1Q224.28-1.05 224.38-1.5L224.38-1.5 224.38-35.7Q224.38-36.25 224.08-36.25L224.08-36.25 221.03-36.35 221.08-37.05Q224.23-37.5 225.4-37.5 226.58-37.5 227.1-36.85 227.63-36.2 227.63-35.45L227.63-35.45 227.63-1 231.38-0.75Q231.38-0.7 231.33 0L231.33 0ZM241.68-1L245.13-0.75Q245.13-0.7 245.08 0L245.08 0 238.78 0 227.63-13.3 236.23-23.25Q236.23-23.9 235.83-23.95L235.83-23.95 233.23-24.3Q233.18-24.55 233.18-25L233.18-25 243.68-24.95Q243.68-24.9 243.73-24.2L243.73-24.2 238.03-23.85 229.63-14.7 241.68-1ZM267.02-33.95L264.37-34.25 264.42-35 276.62-35Q283.37-35 287.45-31.08 291.52-27.15 291.52-18.3L291.52-18.3Q291.52-9.55 288.67-5.2L288.67-5.2Q286.17-1.4 280.87-0.4L280.87-0.4Q278.52 0 275.37 0L275.37 0 274.42 0 264.37 0.05 264.42-0.65 267.02-1Q267.52-1.05 267.62-1.65L267.62-1.65 267.62-33.25Q267.52-33.9 267.02-33.95L267.02-33.95ZM276.37-34.25L276.37-34.25 271.02-34.25 271.02-0.75 275.12-0.75Q277.52-0.75 279.2-1.03 280.87-1.3 282.7-2.33 284.52-3.35 285.57-5.15L285.57-5.15Q288.12-9.4 288.12-18.05L288.12-18.05Q288.12-27.05 284.57-30.8L284.57-30.8Q281.32-34.25 276.37-34.25ZM298.52-11.5L298.52-11.5Q298.52-0.7 306.92-0.7L306.92-0.7Q309.12-0.7 311.62-1.18 314.12-1.65 314.82-2.05L314.82-2.05 315.17-1.55Q314.02-0.8 311.4-0.3 308.77 0.2 306.6 0.2 304.42 0.2 302.7-0.25 300.97-0.7 299.17-1.85 297.37-3 296.32-5.45 295.27-7.9 295.27-11.45L295.27-11.45Q295.27-18.05 298.67-21.55L298.67-21.55Q302.22-25.2 306.92-25.2 311.62-25.2 314.1-22.6 316.57-20 316.57-15.3L316.57-15.3Q316.57-14.3 316.42-13.15L316.42-13.15 298.57-13.15Q298.52-12.6 298.52-11.5ZM313.62-15.65L313.62-15.65Q313.62-19.4 311.97-21.78 310.32-24.15 307.47-24.15L307.47-24.15Q303.77-24.15 301.22-20.9L301.22-20.9Q299.17-18.35 298.67-14.1L298.67-14.1 313.57-14.1Q313.62-14.65 313.62-15.65ZM337.57-24.95L346.77-25Q346.77-24.95 346.82-24.25L346.82-24.25 342.82-23.8 333.22 0 330.22 0 321.52-23.4Q321.22-23.85 320.77-23.95L320.77-23.95 318.17-24.2 318.12-24.95 328.67-25Q328.67-24.95 328.72-24.25L328.72-24.25 325.02-24 332.87-1.05 341.07-23.2Q341.22-23.45 340.89-23.68 340.57-23.9 340.22-23.95L340.22-23.95 337.62-24.2 337.57-24.95ZM349.42-11.5L349.42-11.5Q349.42-0.7 357.81-0.7L357.81-0.7Q360.02-0.7 362.52-1.18 365.02-1.65 365.72-2.05L365.72-2.05 366.06-1.55Q364.92-0.8 362.29-0.3 359.67 0.2 357.49 0.2 355.31 0.2 353.59-0.25 351.87-0.7 350.06-1.85 348.27-3 347.22-5.45 346.17-7.9 346.17-11.45L346.17-11.45Q346.17-18.05 349.56-21.55L349.56-21.55Q353.12-25.2 357.81-25.2 362.52-25.2 364.99-22.6 367.47-20 367.47-15.3L367.47-15.3Q367.47-14.3 367.31-13.15L367.31-13.15 349.47-13.15Q349.42-12.6 349.42-11.5ZM364.52-15.65L364.52-15.65Q364.52-19.4 362.87-21.78 361.22-24.15 358.37-24.15L358.37-24.15Q354.67-24.15 352.12-20.9L352.12-20.9Q350.06-18.35 349.56-14.1L349.56-14.1 364.47-14.1Q364.52-14.65 364.52-15.65ZM381.51 0L371.46 0.05 371.51-0.65 374.11-1Q374.46-1.05 374.56-1.5L374.56-1.5 374.56-35.7Q374.56-36.25 374.26-36.25L374.26-36.25 371.21-36.35 371.26-37.05Q374.41-37.5 375.59-37.5 376.76-37.5 377.29-36.85 377.81-36.2 377.81-35.45L377.81-35.45 377.81-1 381.56-0.75Q381.56-0.7 381.51 0L381.51 0ZM397.49 0.2Q392.26 0.2 389.04-2.8 385.81-5.8 385.81-11.98 385.81-18.15 389.24-21.68 392.66-25.2 397.86-25.2 403.06-25.2 406.31-22.2 409.56-19.2 409.56-13.03 409.56-6.85 406.14-3.33 402.71 0.2 397.49 0.2ZM397.81-24.3Q394.06-24.3 391.56-21.05 389.06-17.8 389.06-12.23 389.06-6.65 391.44-3.68 393.81-0.7 397.56-0.7 401.31-0.7 403.81-3.95 406.31-7.2 406.31-12.75 406.31-18.3 403.94-21.3 401.56-24.3 397.81-24.3ZM423.61 12.45L413.06 12.5 413.11 11.8 415.71 11.45Q416.16 11.4 416.16 10.75L416.16 10.75 416.16-23.35Q416.06-23.75 415.86-23.75L415.86-23.75 412.81-23.85 412.86-24.55Q416.01-25 417.16-25 418.31-25 418.81-24.43 419.31-23.85 419.41-23.15L419.41-23.15Q422.56-25.45 426.11-25.45L426.11-25.45Q429.51-25.45 432.51-23.35L432.51-23.35Q434.11-22.2 435.08-19.75 436.06-17.3 436.06-13.8L436.06-13.8Q436.06-7.15 432.76-3.8L432.76-3.8Q429.01 0 423.06 0L423.06 0Q421.31 0 419.41-0.25L419.41-0.25 419.41 11.45 423.66 11.7Q423.61 12.4 423.61 12.45L423.61 12.45ZM419.41-22.15L419.41-22.15 419.41-1.3Q420.86-0.95 422.56-0.95L422.56-0.95Q427.46-0.95 430.13-4.28 432.81-7.6 432.81-13.55L432.81-13.55Q432.81-20.35 430.11-22.7L430.11-22.7Q428.01-24.55 425.41-24.55 422.81-24.55 419.41-22.15ZM443.31-11.5L443.31-11.5Q443.31-0.7 451.71-0.7L451.71-0.7Q453.91-0.7 456.41-1.18 458.91-1.65 459.61-2.05L459.61-2.05 459.96-1.55Q458.81-0.8 456.18-0.3 453.56 0.2 451.38 0.2 449.21 0.2 447.48-0.25 445.76-0.7 443.96-1.85 442.16-3 441.11-5.45 440.06-7.9 440.06-11.45L440.06-11.45Q440.06-18.05 443.46-21.55L443.46-21.55Q447.01-25.2 451.71-25.2 456.41-25.2 458.88-22.6 461.36-20 461.36-15.3L461.36-15.3Q461.36-14.3 461.21-13.15L461.21-13.15 443.36-13.15Q443.31-12.6 443.31-11.5ZM458.41-15.65L458.41-15.65Q458.41-19.4 456.76-21.78 455.11-24.15 452.26-24.15L452.26-24.15Q448.56-24.15 446.01-20.9L446.01-20.9Q443.96-18.35 443.46-14.1L443.46-14.1 458.36-14.1Q458.41-14.65 458.41-15.65ZM471.15-22.95L471.15-22.95 471.15-18.95Q475.1-24.75 478.9-24.85L478.9-24.85Q479.2-24.85 479.5-24.85L479.5-24.85 482.3-24.5 481-21.5Q480.05-22.45 478.55-22.45L478.55-22.45Q474.9-22.4 471.15-17.6L471.15-17.6 471.15-1 475.4-0.75Q475.4-0.7 475.35 0L475.35 0 464.85 0.05Q464.85-0.4 464.9-0.65L464.9-0.65 467.5-1Q467.9-1.05 467.9-1.7L467.9-1.7 467.9-23.4Q467.8-23.75 467.6-23.75L467.6-23.75 464.6-23.85 464.65-24.55Q467.35-25 468.75-25 470.15-25 470.65-24.35 471.15-23.7 471.15-22.95Z" opacity="1" transform="matrix(1,0,0,1,0,0)" fill="#ee3e38" class="slogan-text-1" data-fill-palette-color="secondary" id="text-1"></path></svg></g></svg></g></svg></g></svg></g><g></g></svg></g></svg></g></svg></g></svg></g><defs></defs></svg><rect width="320" height="360" fill="none" stroke="none" visibility="hidden"></rect></g></svg></g></svg>